<?xml version="1.0" encoding="UTF-8" standalone="no"?>
<!DOCTYPE svg PUBLIC "-//W3C//DTD SVG 1.1//EN" "http://www.w3.org/Graphics/SVG/1.1/DTD/svg11.dtd">
<svg version="1.1" xmlns="http://www.w3.org/2000/svg" xmlns:xlink="http://www.w3.org/1999/xlink" preserveAspectRatio="xMidYMid meet" viewBox="-0.99930442686777 0.0038389625194295007 584.9999999999999 643.2400000000001" width="582" height="640.34"><defs><path d="M340.71 513.32C341.02 512.65 342.58 509.33 345.39 503.36C347.64 504.7 348.89 505.44 349.14 505.59C354.17 508.63 360.49 514.49 360.49 516.13C360.49 518.58 341.17 543.29 328.06 557.69C317.05 569.75 295.86 590.25 288.6 595.75C287.31 596.69 289.54 593.52 293.4 588.72C310.03 568.23 329.35 537.55 340.71 513.32Z" id="av6DraxXf"></path><path d="M354.87 472.92C354.45 468.49 354.22 466.03 354.17 465.54C353.82 461.44 353.23 453.13 352.88 447.04C351.95 432.29 349.72 423.04 344.22 411.21C333.21 387.91 317.29 370.34 290.82 352.55C280.17 345.29 257.92 333.23 207.1 306.88C155.11 279.83 154.41 279.48 130.99 265.78C64.6 226.79 26.54 192.13 8.75 154.31C3.36 142.83 1.02 133.82 0.2 120.7C-2.26 82.06 18.11 46.47 63.66 9.58C77.71 -1.78 78.77 -1.89 68.11 9.46C34.16 45.29 25.84 77.5 41.77 111.22C51.84 132.53 69.17 150.91 96.57 169.3C109.8 178.19 253.59 262.03 302.53 289.55C332.63 306.41 341.88 312.62 354.52 324.68C372.44 341.66 386.14 363.67 392.34 385.57C394.69 393.76 395.04 397.51 395.04 416.01C394.92 434.16 394.57 438.61 392.23 448.21C389.65 458.4 382.39 484.1 380.63 487.26C380.05 488.2 375.72 483.34 367.29 479.12C365.63 478.3 361.49 476.23 354.87 472.92Z" id="a1PSNosZKa"></path><path d="M287.66 596.33C287.87 596.19 288.93 595.49 290.82 594.23C289.49 595.7 288.75 596.52 288.6 596.69C286.61 599.03 284.38 600.08 284.38 598.79C284.38 598.56 285.79 597.39 287.66 596.33Z" id="a6H8nfsxjm"></path><path d="M292.11 589.89C292.46 589.89 292.35 590.48 291.99 591.06C291.64 591.77 291.06 592.24 290.71 592.24C290.36 592.24 290.47 591.77 290.82 591.06C291.18 590.48 291.76 589.89 292.11 589.89Z" id="b3ekv5aflu"></path><path d="M299.96 585.68C300.21 585.45 301.46 584.32 303.7 582.28C301.67 584.6 300.53 585.89 300.31 586.15C297.03 589.66 296.09 590.48 296.09 589.54C296.09 589.31 297.85 587.67 299.96 585.68Z" id="e28hehCk8"></path><path d="M295.86 585.09C297.62 583.57 297.73 583.69 296.21 585.56C294.69 587.43 293.75 588.02 293.75 587.08C293.75 586.85 294.69 585.91 295.86 585.09Z" id="ap5NzYDtE"></path><path d="M300.31 579.36C300.66 579.36 300.54 579.94 300.19 580.53C299.84 581.23 299.25 581.7 298.9 581.7C298.55 581.7 298.67 581.23 299.02 580.53C299.37 579.94 299.96 579.36 300.31 579.36Z" id="cRpUwePI"></path><path d="M303.82 574.67C304.17 574.67 304.06 575.26 303.7 575.84C303.35 576.55 302.77 577.01 302.42 577.01C302.06 577.01 302.18 576.55 302.53 575.84C302.88 575.26 303.47 574.67 303.82 574.67Z" id="b29gMOikIS"></path><path d="M309.68 566.48C310.03 566.48 309.91 567.06 309.56 567.65C309.21 568.35 308.62 568.82 308.27 568.82C307.92 568.82 308.04 568.35 308.39 567.65C308.74 567.06 309.32 566.48 309.68 566.48Z" id="d3I1SHelct"></path><path d="M312.02 562.96C312.37 562.96 312.25 563.55 311.9 564.13C311.55 564.84 310.96 565.3 310.61 565.3C310.26 565.3 310.38 564.84 310.73 564.13C311.08 563.55 311.67 562.96 312.02 562.96Z" id="a2ve0RakWP"></path><path d="M314.36 559.45C314.71 559.45 314.59 560.04 314.24 560.62C313.89 561.32 313.31 561.79 312.95 561.79C312.6 561.79 312.72 561.32 313.07 560.62C313.42 560.04 314.01 559.45 314.36 559.45Z" id="cf9MXxjr9"></path><path d="M334.62 551.25C334.97 551.25 333.45 553.13 331.22 555.35C329 557.58 327.01 559.45 326.65 559.45C326.3 559.45 327.83 557.58 330.05 555.35C332.28 553.13 334.27 551.25 334.62 551.25Z" id="a1nIFWhdFm"></path><path d="M316.7 555.94C317.05 555.94 316.94 556.52 316.58 557.11C316.23 557.81 315.65 558.28 315.3 558.28C314.95 558.28 315.06 557.81 315.41 557.11C315.76 556.52 316.35 555.94 316.7 555.94Z" id="ec76XBDAl"></path><path d="M319.04 552.42C319.39 552.42 319.28 553.01 318.93 553.6C318.58 554.3 317.99 554.77 317.64 554.77C317.29 554.77 317.4 554.3 317.76 553.6C318.11 553.01 318.69 552.42 319.04 552.42Z" id="a1IHdAO1CB"></path><path d="M322.56 546.57C322.91 546.57 322.79 547.15 322.44 547.74C322.09 548.44 321.5 548.91 321.15 548.91C320.8 548.91 320.92 548.44 321.27 547.74C321.62 547.15 322.2 546.57 322.56 546.57Z" id="e1ax91qO0Y"></path><path d="M341.53 543.06C341.88 543.06 341.17 544.11 340 545.4C338.83 546.69 337.66 547.74 337.31 547.74C336.96 547.74 337.66 546.69 338.83 545.4C340 544.11 341.17 543.06 341.53 543.06Z" id="bfQa6eimV"></path><path d="M327.24 538.37C327.59 538.37 327.47 538.96 327.12 539.54C326.77 540.25 326.19 540.71 325.83 540.71C325.48 540.71 325.6 540.25 325.95 539.54C326.3 538.96 326.89 538.37 327.24 538.37Z" id="f1W3WtBJNv"></path><path d="M345.04 538.26C346.79 536.73 346.91 536.85 345.39 538.72C343.87 540.6 342.93 541.18 342.93 540.25C342.93 540.01 343.87 539.08 345.04 538.26Z" id="gbBda12mG"></path><path d="M349.49 532.52C349.84 532.52 349.72 533.1 349.37 533.69C349.02 534.39 348.43 534.86 348.08 534.86C347.73 534.86 347.85 534.39 348.2 533.69C348.55 533.1 349.14 532.52 349.49 532.52Z" id="b3Q0c9uk6"></path><path d="M336.49 520.81C336.84 520.81 336.02 522.92 334.73 525.49C333.45 528.07 332.04 530.18 331.81 530.18C331.46 530.18 332.28 528.07 333.56 525.49C334.85 522.92 336.26 520.81 336.49 520.81Z" id="dtuwYl81f"></path><path d="M353 527.83C353.35 527.83 353.23 528.42 352.88 529.01C352.53 529.71 351.95 530.18 351.6 530.18C351.24 530.18 351.36 529.71 351.71 529.01C352.06 528.42 352.65 527.83 353 527.83Z" id="a2lYnxF7DD"></path><path d="M526.53 511.91C528.52 508.75 533.09 499.97 536.6 492.59C557.56 449.03 554.05 406.76 527 375.03C514 359.92 506.28 354.07 448.2 315.66C379.46 270.23 365.18 259.69 347.5 241.43C329.11 222.22 320.33 203.72 320.33 184.17C320.33 168.71 325.72 153.37 336.37 138.5C342.35 130.19 356.86 115.67 366.7 108.29C380.99 97.4 382.86 96.82 374.43 105.71C363.89 116.96 357.8 125.39 353.23 134.99C349.6 142.72 349.37 143.89 349.37 156.06C349.49 167.42 349.84 169.88 352.65 176.56C356.98 186.74 362.37 194.71 371.85 204.78C381.81 215.31 390.12 221.99 413.77 238.03C424.08 245.06 444.68 259.22 459.44 269.64C474.31 279.95 499.02 297.16 514.47 307.7C555.81 336.15 569.62 350.44 577.47 373.15C580.86 382.87 580.98 384.04 580.98 404.89C581.1 423.27 580.75 428.07 578.64 436.62C574.19 454.42 564.47 472.45 546.44 496.22C536.02 510.04 519.16 529.01 517.28 529.01C516.81 529.01 517.75 526.55 519.62 523.5C521.38 520.34 524.54 515.19 526.53 511.91Z" id="c1QUtobish"></path><path d="M356.51 523.15C356.86 523.15 356.75 523.74 356.4 524.32C356.04 525.02 355.46 525.49 355.11 525.49C354.76 525.49 354.87 525.02 355.23 524.32C355.58 523.74 356.16 523.15 356.51 523.15Z" id="e4kLCJKgu"></path><path d="M359.09 519.52C360.85 518 360.96 518.12 359.44 519.99C357.92 521.86 356.98 522.45 356.98 521.51C356.98 521.28 357.92 520.34 359.09 519.52Z" id="a1bIRfPXWk"></path><path d="M341.17 510.27C342.11 508.63 342.81 507.93 342.81 508.51C342.81 509.22 342.11 510.97 341.17 512.61C340.24 514.25 339.53 515.07 339.53 514.37C339.53 513.78 340.24 511.91 341.17 510.27Z" id="c1Ngn1k0cn"></path><path d="M354.29 467.3C354.52 468.35 354.52 469.99 354.29 470.81C353.94 471.51 353.7 470.69 353.7 468.7C353.7 466.83 353.94 466.13 354.29 467.3Z" id="b6852qk2ZQ"></path><path d="M353.12 448.56C353.35 450.9 353.35 454.89 353.12 457.34C352.88 459.69 352.65 457.7 352.65 452.9C352.65 448.09 352.88 446.1 353.12 448.56Z" id="b4KBr74xpx"></path><path d="M390.59 455.59C390.94 456.06 390.94 456.76 390.59 457.23C390.12 457.58 389.77 457.23 389.77 456.41C389.77 455.59 390.12 455.24 390.59 455.59Z" id="e3xQ5OVM6x"></path><path d="M391.76 450.9C392.11 451.37 392.11 452.08 391.76 452.54C391.29 452.9 390.94 452.54 390.94 451.72C390.94 450.9 391.29 450.55 391.76 450.9Z" id="cR1hLnpEK"></path><path d="M394.1 440.37C394.45 440.83 394.45 441.54 394.1 442.01C393.63 442.36 393.28 442.01 393.28 441.19C393.28 440.37 393.63 440.01 394.1 440.37Z" id="baq6NrdP"></path><path d="M351.95 435.68C352.18 436.74 352.18 438.61 351.95 439.78C351.6 440.83 351.36 439.9 351.36 437.67C351.36 435.45 351.6 434.51 351.95 435.68Z" id="am35GTVB"></path><path d="M395.27 432.17C395.62 432.64 395.62 433.34 395.27 433.81C394.8 434.16 394.45 433.81 394.45 432.99C394.45 432.17 394.8 431.82 395.27 432.17Z" id="bKgF2XCZ4"></path><path d="M350.78 429.24C351.13 430.06 351.01 431.12 350.66 431.47C350.31 431.94 349.96 431.23 350.07 429.94C350.07 428.66 350.42 428.31 350.78 429.24Z" id="b3YBFDRJmJ"></path><path d="M349.6 423.97C349.96 424.44 349.96 425.14 349.6 425.61C349.14 425.96 348.79 425.61 348.79 424.79C348.79 423.97 349.14 423.62 349.6 423.97Z" id="a2ZkqE9kq"></path><path d="M348.43 420.46C348.79 420.93 348.79 421.63 348.43 422.1C347.97 422.45 347.61 422.1 347.61 421.28C347.61 420.46 347.97 420.11 348.43 420.46Z" id="aZKtM61CC"></path><path d="M396.44 411.68C396.68 413.79 396.68 416.95 396.44 418.7C396.21 420.46 395.97 418.7 395.97 414.84C395.97 410.98 396.21 409.57 396.44 411.68Z" id="hoexmublI"></path><path d="M346.09 414.61C346.44 415.07 346.44 415.78 346.09 416.24C345.62 416.6 345.27 416.24 345.27 415.43C345.27 414.61 345.62 414.25 346.09 414.61Z" id="hsqexojqQ"></path><path d="M338.01 399.5C338.83 399.97 339.42 400.55 339.42 400.91C339.42 401.84 338.36 401.37 337.54 399.97C337.08 399.15 337.19 399.03 338.01 399.5Z" id="eclnwAtYt"></path><path d="M395.27 397.04C395.62 397.51 395.62 398.21 395.27 398.68C394.8 399.03 394.45 398.68 394.45 397.86C394.45 397.04 394.8 396.69 395.27 397.04Z" id="b75CUODfQW"></path><path d="M333.33 392.48C334.15 392.94 334.73 393.53 334.73 393.88C334.73 394.82 333.68 394.35 332.86 392.94C332.39 392.12 332.51 392.01 333.33 392.48Z" id="h1bOU8ndTR"></path><path d="M394.1 390.02C394.45 390.48 394.45 391.19 394.1 391.66C393.63 392.01 393.28 391.66 393.28 390.84C393.28 390.02 393.63 389.66 394.1 390.02Z" id="b4fK9Shf8"></path><path d="M330.99 388.96C332.39 389.78 332.86 390.84 331.92 390.84C331.57 390.84 330.99 390.25 330.52 389.43C330.05 388.61 330.17 388.49 330.99 388.96Z" id="dKZYDXECY"></path><path d="M392.93 385.33C393.28 385.8 393.28 386.5 392.93 386.97C392.46 387.32 392.11 386.97 392.11 386.15C392.11 385.33 392.46 384.98 392.93 385.33Z" id="f2Qpff2bqy"></path><path d="M326.89 383.69C328.76 385.22 329.35 386.15 328.41 386.15C328.18 386.15 327.24 385.22 326.42 384.16C324.9 382.29 325.02 382.17 326.89 383.69Z" id="c4PMdvgMSJ"></path><path d="M316.58 372.69C318.55 374.37 319.64 375.31 319.86 375.5C322.79 378.19 323.61 379.13 322.67 379.13C322.44 379.13 321.03 377.72 319.39 375.97C319.02 375.53 318.08 374.44 316.58 372.69Z" id="agHCzKDtb"></path><path d="M304.88 362.15C306.49 363.48 307.39 364.22 307.57 364.37C310.03 366.48 310.73 367.42 309.79 367.42C309.56 367.42 308.39 366.25 307.1 364.84C306.8 364.48 306.06 363.58 304.88 362.15Z" id="a38WOeKWD"></path><path d="M302.88 360.86C304.29 361.68 304.76 362.73 303.82 362.73C303.47 362.73 302.88 362.15 302.42 361.33C301.95 360.51 302.06 360.39 302.88 360.86Z" id="b6wpWAOJlx"></path><path d="M298.2 357.35C299.02 357.82 299.61 358.4 299.61 358.75C299.61 359.69 298.55 359.22 297.73 357.82C297.26 357 297.38 356.88 298.2 357.35Z" id="a1JBaDuoGB"></path><path d="M290 351.49C291.41 352.31 291.88 353.37 290.94 353.37C290.59 353.37 290 352.78 289.54 351.96C289.07 351.14 289.18 351.02 290 351.49Z" id="eMlou1Aff"></path><path d="M284.15 347.98C285.55 348.8 286.02 349.85 285.09 349.85C284.74 349.85 284.15 349.27 283.68 348.45C283.21 347.63 283.33 347.51 284.15 347.98Z" id="banIo0HJO"></path><path d="M278.3 344.47C279.7 345.29 280.17 346.34 279.23 346.34C278.88 346.34 278.3 345.76 277.83 344.94C277.36 344.12 277.48 344 278.3 344.47Z" id="aIuDOyLcq"></path><path d="M371.97 343.3C373.37 344.12 373.84 345.17 372.91 345.17C372.56 345.17 371.97 344.58 371.5 343.76C371.03 342.94 371.15 342.83 371.97 343.3Z" id="a49zjstVmv"></path><path d="M368.46 338.61C369.86 339.43 370.33 340.49 369.39 340.49C369.04 340.49 368.46 339.9 367.99 339.08C367.52 338.26 367.64 338.14 368.46 338.61Z" id="a1kSQgu7xo"></path><path d="M265.41 337.44C266.23 337.91 266.82 338.5 266.82 338.85C266.82 339.78 265.77 339.31 264.95 337.91C264.48 337.09 264.6 336.97 265.41 337.44Z" id="c1Dc4cnxYy"></path><path d="M257.22 332.76C258.62 333.58 259.09 334.63 258.16 334.63C257.8 334.63 257.22 334.05 256.75 333.23C256.28 332.41 256.4 332.29 257.22 332.76Z" id="gLeSekY"></path><path d="M350.54 319.99C354.97 324.21 357.43 326.55 357.92 327.02C364.71 333.46 365.76 334.63 364.83 334.63C364.71 334.63 361.43 331.35 357.57 327.37C356.63 326.39 354.29 323.93 350.54 319.99Z" id="b7Xyhbh514"></path><path d="M237.55 322.34C239.54 323.39 241.06 324.44 241.06 324.68C241.06 325.5 240.94 325.38 237.31 323.39C232.86 321.05 233.1 320.11 237.55 322.34Z" id="ckFNoWDBa"></path><path d="M345.04 315.19C346.44 316.01 346.91 317.07 345.97 317.07C345.62 317.07 345.04 316.48 344.57 315.66C344.1 314.84 344.22 314.73 345.04 315.19Z" id="a1Jrn7iaVt"></path><path d="M340.35 311.68C341.76 312.5 342.23 313.55 341.29 313.55C340.94 313.55 340.35 312.97 339.89 312.15C339.42 311.33 339.53 311.21 340.35 311.68Z" id="f5YQ9Ysnfl"></path><path d="M335.67 308.17C336.49 308.64 337.08 309.22 337.08 309.57C337.08 310.51 336.02 310.04 335.2 308.64C334.73 307.82 334.85 307.7 335.67 308.17Z" id="c12kliRNUc"></path><path d="M205.93 305.94C207.92 307 209.44 308.05 209.44 308.29C209.44 309.1 209.33 308.99 205.7 307C201.25 304.66 201.48 303.72 205.93 305.94Z" id="c1j81Q9aB7"></path><path d="M332.16 305.83C332.98 306.29 333.56 306.88 333.56 307.23C333.56 308.17 332.51 307.7 331.69 306.29C331.22 305.48 331.34 305.36 332.16 305.83Z" id="bgE4zJWKk"></path><path d="M328.65 303.48C329.46 303.95 330.05 304.54 330.05 304.89C330.05 305.83 329 305.36 328.18 303.95C327.71 303.13 327.83 303.02 328.65 303.48Z" id="a3mPCL3Dv"></path><path d="M322.79 299.97C323.61 300.44 324.2 301.03 324.2 301.38C324.2 302.31 323.14 301.85 322.32 300.44C321.85 299.62 321.97 299.5 322.79 299.97Z" id="aZax1o09"></path><path d="M174.32 289.55C176.31 290.6 177.83 291.66 177.83 291.89C177.83 292.71 177.71 292.59 174.08 290.6C169.63 288.26 169.87 287.33 174.32 289.55Z" id="dpK7Sl0gQ"></path><path d="M304.06 289.43C304.88 289.9 305.46 290.49 305.46 290.84C305.46 291.78 304.41 291.31 303.59 289.9C303.12 289.08 303.24 288.96 304.06 289.43Z" id="i2E41dL1iU"></path><path d="M293.52 283.58C294.34 284.05 294.92 284.63 294.92 284.98C294.92 285.92 293.87 285.45 293.05 284.05C292.58 283.23 292.7 283.11 293.52 283.58Z" id="auaGrsiX6"></path><path d="M154.18 278.89C155.58 279.71 156.05 280.77 155.11 280.77C154.76 280.77 154.18 280.18 153.71 279.36C153.24 278.54 153.36 278.43 154.18 278.89Z" id="e1ArC7k7ds"></path><path d="M274.78 273.04C275.6 273.51 276.19 274.09 276.19 274.45C276.19 275.38 275.13 274.91 274.31 273.51C273.85 272.69 273.96 272.57 274.78 273.04Z" id="c26c1szaxg"></path><path d="M266.59 268.36C267.99 269.18 268.46 270.23 267.52 270.23C267.17 270.23 266.59 269.64 266.12 268.82C265.65 268.01 265.77 267.89 266.59 268.36Z" id="c3vOtcEL0b"></path><path d="M362.72 557.11C367.52 547.15 368.11 545.16 368.11 537.79C368.11 530.53 367.64 528.65 363.66 521.39C361.08 516.94 357.68 512.03 356.04 510.5C353.12 508.05 346.68 504.06 345.27 503.83C344.92 503.83 343.4 503.01 341.88 502.19C340.47 501.37 329.11 496.22 316.7 490.83C277.94 473.74 258.97 461.68 248.09 447.16C241.88 438.96 237.55 427.95 237.55 420.23C237.55 407.7 245.63 390.37 257.34 377.72C265.41 369.06 278.41 357.58 279.35 358.4C279.58 358.75 276.19 364.14 271.62 370.46C267.17 376.9 262.37 384.98 260.97 388.49C257.8 396.22 257.45 408.17 260.15 414.37C265.65 427.49 285.2 440.83 325.37 458.98C358.74 474.09 378.41 484.39 382.51 488.96C384.73 491.3 388.13 496.69 390.12 500.9C393.51 507.69 393.87 509.57 393.75 518.47C393.4 539.08 382.74 558.75 358.15 584.51C340.82 602.54 296.44 640.24 292.58 640.24C291.64 640.24 299.37 631.93 309.79 621.74C340.47 592 353.59 576.08 362.72 557.11Z" id="byd7FQKDp"></path></defs><g><g><use xlink:href="#av6DraxXf" opacity="1" fill="#07a750" fill-opacity="1"></use><g><use xlink:href="#av6DraxXf" opacity="1" fill-opacity="0" stroke="#000000" stroke-width="1" stroke-opacity="0"></use></g></g><g><use xlink:href="#a1PSNosZKa" opacity="1" fill="#07a750" fill-opacity="1"></use><g><use xlink:href="#a1PSNosZKa" opacity="1" fill-opacity="0" stroke="#000000" stroke-width="1" stroke-opacity="0"></use></g></g><g><use xlink:href="#a6H8nfsxjm" opacity="1" fill="#2faee1" fill-opacity="1"></use><g><use xlink:href="#a6H8nfsxjm" opacity="1" fill-opacity="0" stroke="#000000" stroke-width="1" stroke-opacity="0"></use></g></g><g><use xlink:href="#b3ekv5aflu" opacity="1" fill="#2faee1" fill-opacity="1"></use><g><use xlink:href="#b3ekv5aflu" opacity="1" fill-opacity="0" stroke="#000000" stroke-width="1" stroke-opacity="0"></use></g></g><g><use xlink:href="#e28hehCk8" opacity="1" fill="#2faee1" fill-opacity="1"></use><g><use xlink:href="#e28hehCk8" opacity="1" fill-opacity="0" stroke="#000000" stroke-width="1" stroke-opacity="0"></use></g></g><g><use xlink:href="#ap5NzYDtE" opacity="1" fill="#2faee1" fill-opacity="1"></use><g><use xlink:href="#ap5NzYDtE" opacity="1" fill-opacity="0" stroke="#000000" stroke-width="1" stroke-opacity="0"></use></g></g><g><use xlink:href="#cRpUwePI" opacity="1" fill="#2faee1" fill-opacity="1"></use><g><use xlink:href="#cRpUwePI" opacity="1" fill-opacity="0" stroke="#000000" stroke-width="1" stroke-opacity="0"></use></g></g><g><use xlink:href="#b29gMOikIS" opacity="1" fill="#2faee1" fill-opacity="1"></use><g><use xlink:href="#b29gMOikIS" opacity="1" fill-opacity="0" stroke="#000000" stroke-width="1" stroke-opacity="0"></use></g></g><g><use xlink:href="#d3I1SHelct" opacity="1" fill="#2faee1" fill-opacity="1"></use><g><use xlink:href="#d3I1SHelct" opacity="1" fill-opacity="0" stroke="#000000" stroke-width="1" stroke-opacity="0"></use></g></g><g><use xlink:href="#a2ve0RakWP" opacity="1" fill="#2faee1" fill-opacity="1"></use><g><use xlink:href="#a2ve0RakWP" opacity="1" fill-opacity="0" stroke="#000000" stroke-width="1" stroke-opacity="0"></use></g></g><g><use xlink:href="#cf9MXxjr9" opacity="1" fill="#2faee1" fill-opacity="1"></use><g><use xlink:href="#cf9MXxjr9" opacity="1" fill-opacity="0" stroke="#000000" stroke-width="1" stroke-opacity="0"></use></g></g><g><use xlink:href="#a1nIFWhdFm" opacity="1" fill="#2faee1" fill-opacity="1"></use><g><use xlink:href="#a1nIFWhdFm" opacity="1" fill-opacity="0" stroke="#000000" stroke-width="1" stroke-opacity="0"></use></g></g><g><use xlink:href="#ec76XBDAl" opacity="1" fill="#2faee1" fill-opacity="1"></use><g><use xlink:href="#ec76XBDAl" opacity="1" fill-opacity="0" stroke="#000000" stroke-width="1" stroke-opacity="0"></use></g></g><g><use xlink:href="#a1IHdAO1CB" opacity="1" fill="#2faee1" fill-opacity="1"></use><g><use xlink:href="#a1IHdAO1CB" opacity="1" fill-opacity="0" stroke="#000000" stroke-width="1" stroke-opacity="0"></use></g></g><g><use xlink:href="#e1ax91qO0Y" opacity="1" fill="#2faee1" fill-opacity="1"></use><g><use xlink:href="#e1ax91qO0Y" opacity="1" fill-opacity="0" stroke="#000000" stroke-width="1" stroke-opacity="0"></use></g></g><g><use xlink:href="#bfQa6eimV" opacity="1" fill="#2faee1" fill-opacity="1"></use><g><use xlink:href="#bfQa6eimV" opacity="1" fill-opacity="0" stroke="#000000" stroke-width="1" stroke-opacity="0"></use></g></g><g><use xlink:href="#f1W3WtBJNv" opacity="1" fill="#2faee1" fill-opacity="1"></use><g><use xlink:href="#f1W3WtBJNv" opacity="1" fill-opacity="0" stroke="#000000" stroke-width="1" stroke-opacity="0"></use></g></g><g><use xlink:href="#gbBda12mG" opacity="1" fill="#2faee1" fill-opacity="1"></use><g><use xlink:href="#gbBda12mG" opacity="1" fill-opacity="0" stroke="#000000" stroke-width="1" stroke-opacity="0"></use></g></g><g><use xlink:href="#b3Q0c9uk6" opacity="1" fill="#2faee1" fill-opacity="1"></use><g><use xlink:href="#b3Q0c9uk6" opacity="1" fill-opacity="0" stroke="#000000" stroke-width="1" stroke-opacity="0"></use></g></g><g><use xlink:href="#dtuwYl81f" opacity="1" fill="#2faee1" fill-opacity="1"></use><g><use xlink:href="#dtuwYl81f" opacity="1" fill-opacity="0" stroke="#000000" stroke-width="1" stroke-opacity="0"></use></g></g><g><use xlink:href="#a2lYnxF7DD" opacity="1" fill="#2faee1" fill-opacity="1"></use><g><use xlink:href="#a2lYnxF7DD" opacity="1" fill-opacity="0" stroke="#000000" stroke-width="1" stroke-opacity="0"></use></g></g><g><use xlink:href="#c1QUtobish" opacity="1" fill="#2faee1" fill-opacity="1"></use><g><use xlink:href="#c1QUtobish" opacity="1" fill-opacity="0" stroke="#000000" stroke-width="1" stroke-opacity="0"></use></g></g><g><use xlink:href="#e4kLCJKgu" opacity="1" fill="#2faee1" fill-opacity="1"></use><g><use xlink:href="#e4kLCJKgu" opacity="1" fill-opacity="0" stroke="#000000" stroke-width="1" stroke-opacity="0"></use></g></g><g><use xlink:href="#a1bIRfPXWk" opacity="1" fill="#2faee1" fill-opacity="1"></use><g><use xlink:href="#a1bIRfPXWk" opacity="1" fill-opacity="0" stroke="#000000" stroke-width="1" stroke-opacity="0"></use></g></g><g><use xlink:href="#c1Ngn1k0cn" opacity="1" fill="#2faee1" fill-opacity="1"></use><g><use xlink:href="#c1Ngn1k0cn" opacity="1" fill-opacity="0" stroke="#000000" stroke-width="1" stroke-opacity="0"></use></g></g><g><use xlink:href="#b6852qk2ZQ" opacity="1" fill="#2faee1" fill-opacity="1"></use><g><use xlink:href="#b6852qk2ZQ" opacity="1" fill-opacity="0" stroke="#000000" stroke-width="1" stroke-opacity="0"></use></g></g><g><use xlink:href="#b4KBr74xpx" opacity="1" fill="#2faee1" fill-opacity="1"></use><g><use xlink:href="#b4KBr74xpx" opacity="1" fill-opacity="0" stroke="#000000" stroke-width="1" stroke-opacity="0"></use></g></g><g><use xlink:href="#e3xQ5OVM6x" opacity="1" fill="#2faee1" fill-opacity="1"></use><g><use xlink:href="#e3xQ5OVM6x" opacity="1" fill-opacity="0" stroke="#000000" stroke-width="1" stroke-opacity="0"></use></g></g><g><use xlink:href="#cR1hLnpEK" opacity="1" fill="#2faee1" fill-opacity="1"></use><g><use xlink:href="#cR1hLnpEK" opacity="1" fill-opacity="0" stroke="#000000" stroke-width="1" stroke-opacity="0"></use></g></g><g><use xlink:href="#baq6NrdP" opacity="1" fill="#2faee1" fill-opacity="1"></use><g><use xlink:href="#baq6NrdP" opacity="1" fill-opacity="0" stroke="#000000" stroke-width="1" stroke-opacity="0"></use></g></g><g><use xlink:href="#am35GTVB" opacity="1" fill="#2faee1" fill-opacity="1"></use><g><use xlink:href="#am35GTVB" opacity="1" fill-opacity="0" stroke="#000000" stroke-width="1" stroke-opacity="0"></use></g></g><g><use xlink:href="#bKgF2XCZ4" opacity="1" fill="#2faee1" fill-opacity="1"></use><g><use xlink:href="#bKgF2XCZ4" opacity="1" fill-opacity="0" stroke="#000000" stroke-width="1" stroke-opacity="0"></use></g></g><g><use xlink:href="#b3YBFDRJmJ" opacity="1" fill="#2faee1" fill-opacity="1"></use><g><use xlink:href="#b3YBFDRJmJ" opacity="1" fill-opacity="0" stroke="#000000" stroke-width="1" stroke-opacity="0"></use></g></g><g><use xlink:href="#a2ZkqE9kq" opacity="1" fill="#2faee1" fill-opacity="1"></use><g><use xlink:href="#a2ZkqE9kq" opacity="1" fill-opacity="0" stroke="#000000" stroke-width="1" stroke-opacity="0"></use></g></g><g><use xlink:href="#aZKtM61CC" opacity="1" fill="#2faee1" fill-opacity="1"></use><g><use xlink:href="#aZKtM61CC" opacity="1" fill-opacity="0" stroke="#000000" stroke-width="1" stroke-opacity="0"></use></g></g><g><use xlink:href="#hoexmublI" opacity="1" fill="#2faee1" fill-opacity="1"></use><g><use xlink:href="#hoexmublI" opacity="1" fill-opacity="0" stroke="#000000" stroke-width="1" stroke-opacity="0"></use></g></g><g><use xlink:href="#hsqexojqQ" opacity="1" fill="#2faee1" fill-opacity="1"></use><g><use xlink:href="#hsqexojqQ" opacity="1" fill-opacity="0" stroke="#000000" stroke-width="1" stroke-opacity="0"></use></g></g><g><use xlink:href="#eclnwAtYt" opacity="1" fill="#2faee1" fill-opacity="1"></use><g><use xlink:href="#eclnwAtYt" opacity="1" fill-opacity="0" stroke="#000000" stroke-width="1" stroke-opacity="0"></use></g></g><g><use xlink:href="#b75CUODfQW" opacity="1" fill="#2faee1" fill-opacity="1"></use><g><use xlink:href="#b75CUODfQW" opacity="1" fill-opacity="0" stroke="#000000" stroke-width="1" stroke-opacity="0"></use></g></g><g><use xlink:href="#h1bOU8ndTR" opacity="1" fill="#2faee1" fill-opacity="1"></use><g><use xlink:href="#h1bOU8ndTR" opacity="1" fill-opacity="0" stroke="#000000" stroke-width="1" stroke-opacity="0"></use></g></g><g><use xlink:href="#b4fK9Shf8" opacity="1" fill="#2faee1" fill-opacity="1"></use><g><use xlink:href="#b4fK9Shf8" opacity="1" fill-opacity="0" stroke="#000000" stroke-width="1" stroke-opacity="0"></use></g></g><g><use xlink:href="#dKZYDXECY" opacity="1" fill="#2faee1" fill-opacity="1"></use><g><use xlink:href="#dKZYDXECY" opacity="1" fill-opacity="0" stroke="#000000" stroke-width="1" stroke-opacity="0"></use></g></g><g><use xlink:href="#f2Qpff2bqy" opacity="1" fill="#2faee1" fill-opacity="1"></use><g><use xlink:href="#f2Qpff2bqy" opacity="1" fill-opacity="0" stroke="#000000" stroke-width="1" stroke-opacity="0"></use></g></g><g><use xlink:href="#c4PMdvgMSJ" opacity="1" fill="#2faee1" fill-opacity="1"></use><g><use xlink:href="#c4PMdvgMSJ" opacity="1" fill-opacity="0" stroke="#000000" stroke-width="1" stroke-opacity="0"></use></g></g><g><use xlink:href="#agHCzKDtb" opacity="1" fill="#2faee1" fill-opacity="1"></use><g><use xlink:href="#agHCzKDtb" opacity="1" fill-opacity="0" stroke="#000000" stroke-width="1" stroke-opacity="0"></use></g></g><g><use xlink:href="#a38WOeKWD" opacity="1" fill="#2faee1" fill-opacity="1"></use><g><use xlink:href="#a38WOeKWD" opacity="1" fill-opacity="0" stroke="#000000" stroke-width="1" stroke-opacity="0"></use></g></g><g><use xlink:href="#b6wpWAOJlx" opacity="1" fill="#2faee1" fill-opacity="1"></use><g><use xlink:href="#b6wpWAOJlx" opacity="1" fill-opacity="0" stroke="#000000" stroke-width="1" stroke-opacity="0"></use></g></g><g><use xlink:href="#a1JBaDuoGB" opacity="1" fill="#2faee1" fill-opacity="1"></use><g><use xlink:href="#a1JBaDuoGB" opacity="1" fill-opacity="0" stroke="#000000" stroke-width="1" stroke-opacity="0"></use></g></g><g><use xlink:href="#eMlou1Aff" opacity="1" fill="#2faee1" fill-opacity="1"></use><g><use xlink:href="#eMlou1Aff" opacity="1" fill-opacity="0" stroke="#000000" stroke-width="1" stroke-opacity="0"></use></g></g><g><use xlink:href="#banIo0HJO" opacity="1" fill="#2faee1" fill-opacity="1"></use><g><use xlink:href="#banIo0HJO" opacity="1" fill-opacity="0" stroke="#000000" stroke-width="1" stroke-opacity="0"></use></g></g><g><use xlink:href="#aIuDOyLcq" opacity="1" fill="#2faee1" fill-opacity="1"></use><g><use xlink:href="#aIuDOyLcq" opacity="1" fill-opacity="0" stroke="#000000" stroke-width="1" stroke-opacity="0"></use></g></g><g><use xlink:href="#a49zjstVmv" opacity="1" fill="#2faee1" fill-opacity="1"></use><g><use xlink:href="#a49zjstVmv" opacity="1" fill-opacity="0" stroke="#000000" stroke-width="1" stroke-opacity="0"></use></g></g><g><use xlink:href="#a1kSQgu7xo" opacity="1" fill="#2faee1" fill-opacity="1"></use><g><use xlink:href="#a1kSQgu7xo" opacity="1" fill-opacity="0" stroke="#000000" stroke-width="1" stroke-opacity="0"></use></g></g><g><use xlink:href="#c1Dc4cnxYy" opacity="1" fill="#2faee1" fill-opacity="1"></use><g><use xlink:href="#c1Dc4cnxYy" opacity="1" fill-opacity="0" stroke="#000000" stroke-width="1" stroke-opacity="0"></use></g></g><g><use xlink:href="#gLeSekY" opacity="1" fill="#2faee1" fill-opacity="1"></use><g><use xlink:href="#gLeSekY" opacity="1" fill-opacity="0" stroke="#000000" stroke-width="1" stroke-opacity="0"></use></g></g><g><use xlink:href="#b7Xyhbh514" opacity="1" fill="#2faee1" fill-opacity="1"></use><g><use xlink:href="#b7Xyhbh514" opacity="1" fill-opacity="0" stroke="#000000" stroke-width="1" stroke-opacity="0"></use></g></g><g><use xlink:href="#ckFNoWDBa" opacity="1" fill="#2faee1" fill-opacity="1"></use><g><use xlink:href="#ckFNoWDBa" opacity="1" fill-opacity="0" stroke="#000000" stroke-width="1" stroke-opacity="0"></use></g></g><g><use xlink:href="#a1Jrn7iaVt" opacity="1" fill="#2faee1" fill-opacity="1"></use><g><use xlink:href="#a1Jrn7iaVt" opacity="1" fill-opacity="0" stroke="#000000" stroke-width="1" stroke-opacity="0"></use></g></g><g><use xlink:href="#f5YQ9Ysnfl" opacity="1" fill="#2faee1" fill-opacity="1"></use><g><use xlink:href="#f5YQ9Ysnfl" opacity="1" fill-opacity="0" stroke="#000000" stroke-width="1" stroke-opacity="0"></use></g></g><g><use xlink:href="#c12kliRNUc" opacity="1" fill="#2faee1" fill-opacity="1"></use><g><use xlink:href="#c12kliRNUc" opacity="1" fill-opacity="0" stroke="#000000" stroke-width="1" stroke-opacity="0"></use></g></g><g><use xlink:href="#c1j81Q9aB7" opacity="1" fill="#2faee1" fill-opacity="1"></use><g><use xlink:href="#c1j81Q9aB7" opacity="1" fill-opacity="0" stroke="#000000" stroke-width="1" stroke-opacity="0"></use></g></g><g><use xlink:href="#bgE4zJWKk" opacity="1" fill="#2faee1" fill-opacity="1"></use><g><use xlink:href="#bgE4zJWKk" opacity="1" fill-opacity="0" stroke="#000000" stroke-width="1" stroke-opacity="0"></use></g></g><g><use xlink:href="#a3mPCL3Dv" opacity="1" fill="#2faee1" fill-opacity="1"></use><g><use xlink:href="#a3mPCL3Dv" opacity="1" fill-opacity="0" stroke="#000000" stroke-width="1" stroke-opacity="0"></use></g></g><g><use xlink:href="#aZax1o09" opacity="1" fill="#2faee1" fill-opacity="1"></use><g><use xlink:href="#aZax1o09" opacity="1" fill-opacity="0" stroke="#000000" stroke-width="1" stroke-opacity="0"></use></g></g><g><use xlink:href="#dpK7Sl0gQ" opacity="1" fill="#2faee1" fill-opacity="1"></use><g><use xlink:href="#dpK7Sl0gQ" opacity="1" fill-opacity="0" stroke="#000000" stroke-width="1" stroke-opacity="0"></use></g></g><g><use xlink:href="#i2E41dL1iU" opacity="1" fill="#2faee1" fill-opacity="1"></use><g><use xlink:href="#i2E41dL1iU" opacity="1" fill-opacity="0" stroke="#000000" stroke-width="1" stroke-opacity="0"></use></g></g><g><use xlink:href="#auaGrsiX6" opacity="1" fill="#2faee1" fill-opacity="1"></use><g><use xlink:href="#auaGrsiX6" opacity="1" fill-opacity="0" stroke="#000000" stroke-width="1" stroke-opacity="0"></use></g></g><g><use xlink:href="#e1ArC7k7ds" opacity="1" fill="#2faee1" fill-opacity="1"></use><g><use xlink:href="#e1ArC7k7ds" opacity="1" fill-opacity="0" stroke="#000000" stroke-width="1" stroke-opacity="0"></use></g></g><g><use xlink:href="#c26c1szaxg" opacity="1" fill="#2faee1" fill-opacity="1"></use><g><use xlink:href="#c26c1szaxg" opacity="1" fill-opacity="0" stroke="#000000" stroke-width="1" stroke-opacity="0"></use></g></g><g><use xlink:href="#c3vOtcEL0b" opacity="1" fill="#2faee1" fill-opacity="1"></use><g><use xlink:href="#c3vOtcEL0b" opacity="1" fill-opacity="0" stroke="#000000" stroke-width="1" stroke-opacity="0"></use></g></g><g><use xlink:href="#byd7FQKDp" opacity="1" fill="#f0962a" fill-opacity="1"></use><g><use xlink:href="#byd7FQKDp" opacity="1" fill-opacity="0" stroke="#000000" stroke-width="1" stroke-opacity="0"></use></g></g></g></svg>