<svg xmlns="http://www.w3.org/2000/svg" viewBox="0 0 500 600" preserveAspectRatio="xMidYMid meet" version="1" id="Syi3M0xzQ"><style>@-webkit-keyframes B1Mo2G0gz7_Animation{0%{opacity: 0;}50%{opacity: 1;}100%{opacity: 0;}}@keyframes B1Mo2G0gz7_Animation{0%{opacity: 0;}50%{opacity: 1;}100%{opacity: 0;}}@-webkit-keyframes H1ZihGCxGm_Animation{0%{opacity: 0.5;}25%{opacity: 1;}75%{opacity: 0;}100%{opacity: 0.5;}}@keyframes H1ZihGCxGm_Animation{0%{opacity: 0.5;}25%{opacity: 1;}75%{opacity: 0;}100%{opacity: 0.5;}}@-webkit-keyframes HkljhMRef7_Animation{0%{opacity: 1;}50%{opacity: 0;}100%{opacity: 1;}}@keyframes HkljhMRef7_Animation{0%{opacity: 1;}50%{opacity: 0;}100%{opacity: 1;}}#Syi3M0xzQ *{-webkit-animation-duration: 2s;animation-duration: 2s;-webkit-animation-iteration-count: infinite;animation-iteration-count: infinite;-webkit-animation-timing-function: cubic-bezier(0, 0, 1, 1);animation-timing-function: cubic-bezier(0, 0, 1, 1);}#HkljhMRef7{fill: #07b360;-webkit-transform-origin: 50% 100%;transform-origin: 50% 100%;transform-box: fill-box;-webkit-animation-name: HkljhMRef7_Animation;animation-name: HkljhMRef7_Animation;opacity: 1;-webkit-animation-timing-function: cubic-bezier(0, 0, 0.58, 1);animation-timing-function: cubic-bezier(0, 0, 0.58, 1);}#H1ZihGCxGm{fill: #f0962a;-webkit-transform-origin: 50% 50%;transform-origin: 50% 50%;transform-box: fill-box;-webkit-animation-name: H1ZihGCxGm_Animation;animation-name: H1ZihGCxGm_Animation;opacity: 0.5;}#B1Mo2G0gz7{fill: #2faee1;-webkit-animation-name: B1Mo2G0gz7_Animation;animation-name: B1Mo2G0gz7_Animation;-webkit-transform-origin: 50% 50%;transform-origin: 50% 50%;transform-box: fill-box;opacity: 0;}</style>
  <path id="HkljhMRef7" d="M406 543C437 483 445 425 405 381 386 361 361 353 275 300 173 237 152 223 125 198 98 172 85 146 85 119 85 98 93 77 109 57 113 52 131 33 164 0 150 18 141 28 137 33 128 44 122 56 119 70 119 70 119 70 119 70 119 70 119 70 119 70 116 82 119 94 125 105 127 107 128 110 129 111 136 125 147 134 162 148 176 162 351 274 373 289 435 328 460 348 472 379 477 392 478 394 478 422 478 448 475 454 472 466 465 490 448 515 421 548 405 567 380 593 378 593 377 593 378 589 381 585 384 581 388 574 391 569 394 565 401 553 406 543Z"/>
  <path id="H1ZihGCxGm" d="M448 533C447 506 390 485 384 483 370 477 356 467 342 455 324 439 321 412 334 392 338 387 340 383 342 381 350 373 363 361 364 362 364 362 360 369 352 381 348 388 345 397 345 405 345 408 345 401 345 403 345 412 349 422 356 428 370 441 388 453 410 462 418 466 429 471 441 476 469 489 483 521 471 549 469 556 465 562 461 567 443 585 381 643 377 643 376 643 384 634 394 624 410 609 449 562 448 533Z"/>
  <path id="B1Mo2G0gz7" d="M530 424C553 376 546 334 520 302 508 286 503 286 448 247 413 222 387 204 368 190 355 181 342 169 331 156 324 147 335 160 331 156 311 131 310 95 331 69 333 66 336 63 338 61 349 49 359 40 369 32 370 31 371 33 371 34 367 40 363 44 360 48 354 56 350 66 348 76 348 76 348 76 348 76 348 77 347 78 347 78 346 86 347 94 351 100 352 103 354 105 354 107 358 117 366 124 375 134 384 145 496 228 511 239 550 268 566 282 573 306 577 315 577 317 577 338 578 357 575 362 573 370 569 389 561 402 541 428 529 444 511 465 509 465 508 465 509 462 511 459 513 455 517 449 519 446 521 442 526 432 530 424Z"/>
<script>(function(){var a=document.querySelector('#Syi3M0xzQ'),b=a.querySelectorAll('style'),c=function(d){b.forEach(function(f){var g=f.textContent;g&amp;&amp;(f.textContent=g.replace(/transform-box:[^;\r\n]*/gi,'transform-box: '+d))})};c('initial'),window.requestAnimationFrame(function(){return c('fill-box')})})();</script></svg>
